HIERARCHY
ROOT Hips
{
	OFFSET	0.00	0.00	0.00
	CHANNELS 6 Xposition Yposition Zposition Zrotation Xrotation Yrotation
	JOINT LeftUpLeg
	{
		OFFSET	 0.126116	-0.065224	 0.014019
		CHANNELS 3 Zrotation Xrotation Yrotation
		JOINT LeftLeg
		{
			OFFSET	 0.000000	 0.569914	 0.000000
			CHANNELS 3 Zrotation Xrotation Yrotation
			JOINT LeftFoot
			{
				OFFSET	 0.000000	 0.544423	 0.000000
				CHANNELS 3 Zrotation Xrotation Yrotation
				JOINT LeftToeBase
				{
					OFFSET	 0.000000	 0.207117	 0.000000
					CHANNELS 3 Zrotation Xrotation Yrotation
					End Site
					{
						OFFSET	 0.000000	 0.207117	 0.000000
					}
				}
			}
		}
	}
	JOINT RightUpLeg
	{
		OFFSET	-0.124023	-0.065224	 0.008373
		CHANNELS 3 Zrotation Xrotation Yrotation
		JOINT RightLeg
		{
			OFFSET	 0.000000	 0.570047	 0.000000
			CHANNELS 3 Zrotation Xrotation Yrotation
			JOINT RightFoot
			{
				OFFSET	 0.000000	 0.544354	 0.000000
				CHANNELS 3 Zrotation Xrotation Yrotation
				JOINT RightToeBase
				{
					OFFSET	 0.000000	 0.207540	 0.000000
					CHANNELS 3 Zrotation Xrotation Yrotation
					End Site
					{
						OFFSET	 0.000000	 0.207540	 0.000000
					}
				}
			}
		}
	}
	JOINT Spine
	{
		OFFSET	 0.000184	 0.117403	 0.007763
		CHANNELS 3 Zrotation Xrotation Yrotation
		JOINT Spine1
		{
			OFFSET	 0.000000	 0.137269	 0.000000
			CHANNELS 3 Zrotation Xrotation Yrotation
			JOINT Spine2
			{
				OFFSET	 0.000000	 0.156879	 0.000000
				CHANNELS 3 Zrotation Xrotation Yrotation
				JOINT LeftShoulder
				{
					OFFSET	 0.080501	 0.160143	 0.002496
					CHANNELS 3 Zrotation Xrotation Yrotation
					JOINT LeftArm
					{
						OFFSET	 0.000000	 0.164363	 0.000000
						CHANNELS 3 Zrotation Xrotation Yrotation
						JOINT LeftForeArm
						{
							OFFSET	 0.000000	 0.364576	 0.000000
							CHANNELS 3 Zrotation Xrotation Yrotation
							JOINT LeftHand
							{
								OFFSET	 0.000000	 0.360812	 0.000000
								CHANNELS 3 Zrotation Xrotation Yrotation
								JOINT LeftHandIndex1
								{
									OFFSET	 0.000000	 0.086006	 0.000000
									CHANNELS 3 Zrotation Xrotation Yrotation
									JOINT LeftHandIndex2
									{
										OFFSET	 0.000000	 0.047237	 0.000000
										CHANNELS 3 Zrotation Xrotation Yrotation
										JOINT LeftHandIndex3
										{
											OFFSET	-0.004284	 0.038165	 0.000551
											CHANNELS 3 Zrotation Xrotation Yrotation
											End Site
											{
												OFFSET	-0.004284	 0.038165	 0.000551
											}
										}
									}
								}
							}
						}
					}
				}
				JOINT Neck
				{
					OFFSET	 0.000000	 0.176489	 0.000000
					CHANNELS 3 Zrotation Xrotation Yrotation
					JOINT Head
					{
						OFFSET	 0.000000	 0.077941	 0.001747
						CHANNELS 3 Zrotation Xrotation Yrotation
						End Site
						{
							OFFSET	 0.000000	 0.077941	 0.001747
						}
					}
				}
				JOINT RightShoulder
				{
					OFFSET	-0.080363	 0.159706	-0.000306
					CHANNELS 3 Zrotation Xrotation Yrotation
					JOINT RightArm
					{
						OFFSET	 0.000000	 0.164196	 0.000000
						CHANNELS 3 Zrotation Xrotation Yrotation
						JOINT RightForeArm
						{
							OFFSET	 0.000000	 0.365611	 0.000000
							CHANNELS 3 Zrotation Xrotation Yrotation
							JOINT RightHand
							{
								OFFSET	 0.000000	 0.360648	 0.000000
								CHANNELS 3 Zrotation Xrotation Yrotation
								JOINT RightHandIndex1
								{
									OFFSET	 0.000000	 0.069977	 0.000000
									CHANNELS 3 Zrotation Xrotation Yrotation
									JOINT RightHandIndex2
									{
										OFFSET	 0.000000	 0.052305	 0.000000
										CHANNELS 3 Zrotation Xrotation Yrotation
										JOINT RightHandIndex3
										{
											OFFSET	 0.009002	 0.042196	 0.000782
											CHANNELS 3 Zrotation Xrotation Yrotation
											End Site
											{
												OFFSET	 0.009002	 0.042196	 0.000782
											}
										}
									}
								}
							}
						}
					}
				}
			}
		}
	}
}
MOTION
Frames:    12
Frame Time: 0.03333334
-0.015705	 1.239720	 0.068675	 2.885267	 0.415092	 172.000500	-171.092100	 18.769780	-1.084818	 8.992077	-30.556700	 4.427711	-20.254620	 72.909240	 11.610220	 1.161839	 26.686730	-2.659584	-172.756700	 12.814690	-7.574618	-2.385758	-28.810930	 7.795098	 4.239066	 75.744290	-4.414157	-1.288814	 28.370130	 2.710442	 2.111584	 6.034915	-6.197734	 5.824047	 5.862109	-3.413966	-4.460343	-5.250382	 12.247470	-113.116100	 6.495026	 92.943350	 10.343200	 49.983130	 12.443160	 25.165300	-1.259568	 0.183221	 0.796978	-3.245901	-13.990480	 0.622817	 8.461067	-0.355400	-5.948839	 13.620800	 1.522587	 4.989080	-3.445049	-0.333073	 3.183578	-6.827343	 0.883983	-1.254291	-5.864835	 6.548124	 123.406000	 10.382220	-96.377880	-9.611800	 48.084430	-0.593975	-5.100261	-0.199686	 0.063996	-4.342443	-2.905693	-49.724350	-2.330030	 4.915020	 0.895370	 12.543720	 22.976620	-5.178312	-8.501222	 13.165650	-0.529504
-0.016750	 1.239616	 0.069060	 2.789559	 0.261005	 171.319600	-170.943300	 18.733780	-1.927043	 9.032737	-30.528420	 4.229710	-21.153820	 72.783400	 12.558860	 1.161222	 26.678370	-2.659339	-172.734700	 13.198200	-8.022915	-2.400048	-29.038220	 7.500889	 3.224354	 75.768530	-3.222440	-1.288224	 28.362360	 2.710192	 2.351689	 5.721921	-6.212430	 5.415736	 6.575715	-3.284601	-4.054277	-6.463408	 12.133850	-112.847000	 6.532945	 92.971600	 9.555382	 50.539620	 13.495330	 24.918790	-1.244631	 0.129099	 2.203389	-4.407834	-13.116090	 0.831729	 7.812404	-0.352765	-5.946198	 13.766490	 1.538209	 4.999611	-3.213505	-0.327510	 3.175942	-6.833031	 0.927969	-1.247604	-6.127045	 6.820419	 123.225500	 10.411580	-96.358960	-8.811289	 48.422210	-0.949535	-5.165773	-0.199596	 0.112447	-6.208229	-2.911851	-48.674180	-2.405607	 5.151715	 0.892531	 12.590090	 23.601120	-5.329875	-8.505555	 13.676810	-0.561788
-0.018466	 1.239581	 0.069779	 2.633732	-0.008719	 170.160300	-170.676600	 18.660730	-3.210378	 9.005485	-30.453360	 3.734379	-22.547110	 72.539080	 14.037140	 1.160185	 26.664330	-2.658927	-172.671400	 13.836350	-8.777006	-2.418677	-29.358680	 7.008878	 1.522835	 75.759860	-1.253063	-1.287231	 28.349310	 2.709773	 2.747108	 5.336112	-6.238541	 4.939824	 7.375740	-3.092657	-3.496427	-7.883470	 11.823690	-112.394600	 6.596923	 93.018650	 8.826059	 51.496840	 14.791870	 24.369190	-1.213131	 0.035446	 4.191730	-5.805840	-11.622730	 1.182501	 6.721427	-0.342971	-5.941850	 14.011300	 1.564469	 5.017253	-2.824378	-0.318258	 3.163119	-6.842600	 1.001883	-1.239103	-6.479590	 7.244885	 122.922100	 10.460800	-96.326960	-8.014520	 48.746090	-1.156420	-5.279818	-0.199774	 0.193821	-8.510522	-2.901794	-46.828900	-2.532658	 5.549511	 0.888463	 12.672680	 24.651110	-5.587698	-8.512195	 14.536220	-0.616141
-0.020705	 1.239676	 0.070815	 2.417739	-0.368164	 168.620700	-170.324600	 18.545580	-4.903406	 8.948131	-30.294950	 3.070212	-24.226680	 72.170060	 15.840200	 1.158818	 26.645820	-2.658385	-172.556400	 14.654910	-9.771192	-2.434879	-29.683040	 6.364073	-0.745953	 75.669820	 1.320195	-1.285923	 28.332100	 2.709219	 3.259043	 4.929677	-6.368639	 4.597579	 8.225116	-2.956227	-2.903105	-9.361483	 11.312140	-111.798300	 6.681851	 93.079910	 8.327448	 52.818700	 16.136190	 23.534940	-1.166101	-0.089911	 6.510367	-7.298214	-9.785069	 1.644627	 5.281831	-0.319810	-5.936285	 14.334040	 1.599100	 5.040408	-2.311363	-0.306249	 3.146236	-6.855240	 1.099315	-1.226024	-6.883066	 7.778316	 122.522100	 10.525410	-96.284360	-7.489681	 48.951840	-1.047293	-5.429750	-0.199888	 0.301074	-10.907200	-2.898486	-44.500660	-2.700256	 6.073973	 0.884451	 12.790810	 26.036010	-5.933923	-8.519700	 15.669810	-0.688013
-0.023243	 1.239953	 0.072023	 2.164997	-0.775426	 166.871400	-169.926300	 18.389160	-6.813253	 8.860792	-30.052800	 2.309687	-25.931530	 71.708280	 17.699860	 1.157277	 26.624960	-2.657774	-172.387900	 15.538000	-10.794290	-2.498860	-29.919130	 5.529298	-3.286556	 75.472050	 4.148109	-1.284449	 28.312690	 2.708596	 3.838311	 4.544048	-6.635588	 4.479975	 9.114697	-2.936347	-2.357528	-10.793180	 10.646780	-111.125800	 6.778369	 93.147910	 8.188731	 54.356250	 17.300810	 22.496150	-1.108102	-0.232497	 8.881275	-8.744052	-7.882960	 2.165801	 3.657388	-0.279752	-5.930245	 14.697940	 1.638169	 5.066379	-1.732875	-0.292961	 3.127225	-6.869526	 1.209168	-1.206433	-7.297796	 8.359407	 122.070900	 10.597920	-96.235750	-7.360916	 48.998690	-0.584622	-5.600844	-0.200115	 0.421972	-13.141630	-2.914693	-42.028080	-2.889406	 6.665383	 0.881776	 12.937200	 27.598020	-6.333613	-8.526432	 16.948630	-0.769410
-0.026742	 1.240621	 0.073557	 1.831441	-1.333699	 164.492300	-169.369300	 18.133260	-9.382298	 8.714458	-29.644080	 1.272679	-27.943080	 71.043520	 19.939550	 1.155205	 26.596900	-2.656954	-172.096200	 16.654200	-12.270360	-2.512307	-30.051840	 4.529367	-6.548547	 75.071920	 7.725583	-1.282467	 28.286600	 2.707760	 4.647793	 4.105319	-7.099802	 4.555720	 10.287730	-3.014000	-1.730489	-12.487850	 9.644966	-110.221100	 6.909426	 93.237630	 8.659476	 56.405040	 18.279190	 20.967500	-1.023273	-0.425235	 11.795700	-10.348460	-5.469064	 2.868031	 1.471770	-0.202591	-5.922509	 15.187410	 1.690760	 5.101090	-0.954748	-0.275506	 3.101699	-6.888798	 1.356916	-1.171130	-7.816512	 9.118814	 121.463700	 10.694840	-96.169440	-7.695209	 48.854910	 0.409022	-5.833025	-0.200502	 0.584595	-15.666130	-2.987426	-38.797920	-3.144173	 7.460900	 0.881277	 13.157480	 29.698600	-6.888274	-8.532542	 18.669300	-0.879606
-0.031040	 1.241621	 0.074933	 1.413755	-1.975690	 161.688800	-168.743700	 17.765360	-12.379720	 8.524005	-29.107010	 0.052410	-30.028220	 70.255980	 22.319480	 1.152786	 26.564100	-2.655998	-171.724000	 17.857010	-14.001150	-2.509708	-30.026410	 3.377433	-10.091060	 74.487600	 11.572650	-1.280152	 28.256100	 2.706784	 5.587567	 3.689120	-7.607100	 4.610958	 11.584580	-3.028693	-1.002371	-14.175310	 8.365815	-109.163800	 7.064353	 93.339840	 9.924931	 58.551680	 18.719550	 19.264020	-0.927213	-0.646506	 14.832030	-11.600860	-2.580504	 3.692376	-1.081124	-0.078487	-5.914037	 15.759450	 1.752296	 5.141355	-0.045331	-0.255705	 3.071928	-6.911402	 1.529587	-1.116966	-8.384918	 9.987221	 120.753700	 10.807250	-96.090640	-8.446277	 48.517720	 1.828656	-6.108135	-0.201124	 0.774309	-18.163860	-3.228189	-34.824560	-3.442539	 8.390617	 0.885223	 13.451550	 32.150970	-7.564242	-8.535286	 20.680260	-1.009658
-0.035648	 1.242670	 0.075559	 0.934544	-2.592855	 158.872200	-168.190000	 17.333690	-15.375000	 8.334308	-28.566070	-1.168567	-31.996380	 69.503490	 24.608810	 1.150360	 26.531200	-2.655040	-171.381200	 18.995020	-15.739530	-2.501495	-29.945320	 2.232862	-13.371040	 73.878590	 15.144190	-1.277832	 28.225510	 2.705806	 6.459791	 3.333283	-7.854166	 4.254954	 12.642800	-2.694834	-0.145023	-15.499480	 7.021465	-108.103300	 7.221574	 93.439450	 11.605610	 60.270820	 18.703710	 17.785890	-0.841339	-0.862183	 17.600280	-11.995300	 0.705095	 4.525461	-3.637120	 0.082985	-5.906157	 16.333250	 1.814107	 5.181425	 0.866795	-0.236486	 3.042133	-6.934167	 1.702787	-1.049374	-8.925100	 10.851460	 120.041100	 10.918990	-96.010100	-9.093537	 48.107940	 3.163577	-6.391105	-0.202030	 0.964355	-20.350100	-3.770155	-30.250870	-3.742608	 9.323044	 0.894120	 13.789920	 34.605380	-8.276381	-8.533110	 22.696210	-1.141764
-0.043348	 1.243529	 0.074180	 0.303767	-3.337599	 155.138400	-167.539300	 16.761630	-19.344200	 8.227646	-28.259410	-1.702563	-32.755590	 69.315280	 25.620600	 1.146705	 26.481590	-2.653600	-170.972600	 20.398720	-18.061200	-2.486957	-29.902150	 0.607854	-17.635700	 73.073300	 19.939930	-1.275656	 28.196780	 2.704891	 7.485015	 2.979915	-8.255844	 3.720121	 13.457030	-2.147936	 0.822647	-16.496770	 5.519829	-106.561700	 7.192914	 93.503950	 12.656580	 61.526620	 18.813820	 17.485370	-0.809686	-1.110124	 19.309920	-11.875140	 3.639096	 5.549577	-6.734332	 0.392558	-5.897168	 17.051890	 1.891664	 5.231104	 2.006857	-0.213351	 2.997355	-6.931551	 1.972985	-1.040808	-9.444121	 12.299610	 118.886000	 11.075540	-95.831450	-1.452142	 47.707370	-1.597703	-17.324110	-0.609406	 1.119289	-19.328290	-5.684526	-25.092770	-4.161193	 10.630090	 0.920923	 14.362510	 38.121990	-9.371168	-8.521456	 25.501930	-1.329280
-0.056719	 1.243831	 0.067820	-0.306298	-4.212467	 150.543500	-166.757800	 16.115530	-24.185890	 8.393032	-28.734260	 0.120733	-29.041310	 70.896680	 21.862290	 1.141223	 26.407120	-2.651448	-170.533300	 21.910090	-20.827610	-2.483769	-29.769210	-1.719505	-22.552050	 71.954440	 25.862320	-1.275197	 28.190600	 2.704699	 8.684753	 2.712660	-9.817512	 4.312537	 13.725750	-2.403559	 1.137814	-16.671480	 4.524547	-104.368900	 6.578106	 93.442550	 10.800970	 61.331770	 19.680810	 19.351540	-0.882458	-1.349232	 18.221960	-12.280570	 2.239672	 6.592292	-9.799077	 0.923177	-5.888650	 17.820060	 1.974763	 5.283514	 3.220049	-0.189798	 2.929830	-6.849202	 2.398019	-1.262079	-9.654257	 14.806370	 116.978700	 11.280190	-95.441040	 7.541629	 45.460850	-7.511217	-29.270480	-1.025910	 1.203224	-22.880500	-9.850680	-22.966650	-4.718651	 12.384030	 0.985905	 15.372180	 43.033880	-11.087320	-8.489232	 29.229880	-1.586971
-0.070712	 1.242925	 0.059494	-0.993688	-4.907793	 146.042200	-166.144200	 15.461430	-28.937790	 8.677427	-29.540200	 1.811444	-25.497380	 72.566100	 18.444020	 1.135847	 26.334010	-2.649344	-170.164000	 23.386150	-23.574590	-2.496531	-29.895880	-3.987403	-27.103470	 70.939360	 31.427770	-1.274747	 28.184530	 2.704510	 9.668010	 2.497221	-10.833270	 3.914595	 13.512750	-2.037494	 1.734932	-16.336150	 3.826978	-102.219200	 5.972631	 93.405400	 8.010472	 60.656940	 21.349110	 20.470780	-0.918454	-1.593333	 18.389240	-12.154080	 1.583305	 7.655251	-12.798320	 1.505252	-5.881395	 18.574250	 2.056589	 5.334558	 4.411167	-0.167725	 2.862950	-6.768837	 2.815328	-1.479334	-9.846404	 17.334810	 115.103500	 11.468630	-95.050930	 13.762620	 42.148190	-11.071390	-38.683470	-1.318525	 1.260145	-26.243960	-14.160950	-19.926590	-5.271881	 14.105380	 1.067274	 16.665330	 47.831000	-13.049140	-8.436922	 32.890250	-1.852447
-0.091067	 1.239399	 0.044902	-1.757310	-5.331066	 140.534600	-165.694100	 14.705140	-34.734350	 9.332602	-31.346390	 4.826302	-18.451330	 75.593060	 11.436090	 1.130459	 26.260630	-2.647243	-169.602500	 24.905570	-27.395610	-2.570303	-30.621850	-6.016795	-30.222830	 70.309460	 35.975880	-1.279175	 28.242780	 2.706376	 10.363920	 2.652065	-11.942470	 4.196560	 13.364290	-2.237751	 1.957334	-15.527530	 3.283605	-99.846080	 4.819279	 93.259870	 0.952168	 57.534360	 23.898450	 23.995800	-1.064757	-1.847367	 15.743390	-10.373260	-2.043001	 8.128423	-14.234200	 1.878276	-5.878227	 18.946350	 2.097059	 5.359795	 5.003417	-0.157136	 2.814065	-6.578807	 3.323274	-1.720329	-9.951350	 20.115620	 111.607700	 11.149340	-92.010630	 20.669190	 38.683040	-8.264498	-53.197370	-1.697193	 1.173916	-27.093480	-20.145290	-12.821740	-5.719635	 15.474360	 1.158137	 17.859430	 51.315580	-14.718540	-8.382607	 35.630060	-2.061511
